<svg version="1.1" viewBox="0.0 0.0 3456.0 720.0" fill="none" stroke="none" stroke-linecap="square" stroke-miterlimit="10" xmlns:xlink="http://www.w3.org/1999/xlink" xmlns="http://www.w3.org/2000/svg"><clipPath id="p.0"><path d="m0 0l3456.0 0l0 720.0l-3456.0 0l0 -720.0z" clip-rule="nonzero"/></clipPath><g clip-path="url(#p.0)"><path fill="#000000" fill-opacity="0.0" d="m0 0l3456.0 0l0 720.0l-3456.0 0z" fill-rule="evenodd"/><path fill="#000000" fill-opacity="0.0" d="m878.16797 29.341208l2407.874 0l0 720.0l-2407.874 0z" fill-rule="evenodd"/><path fill="#000000" d="m1204.1836 356.41245q6.8125 0 11.265625 4.453125q4.453125 4.453125 4.453125 11.265625l0 126.28125q0 8.90625 -7.859375 14.1562195q-23.578125 16.234375 -52.40625 25.140625q-28.8125 8.90625 -58.671875 8.90625q-53.453125 0 -96.421875 -24.625q-42.96875 -24.62497 -67.59375 -67.59372q-24.625 -42.96875 -24.625 -96.421875q0 -53.4375 24.625 -96.40625q24.625 -42.968765 67.59375 -67.593765q42.96875 -24.640625 96.421875 -24.640625q27.765625 0 53.703125 6.8125q25.9375 6.8125 46.375 19.390625q7.34375 4.71875 7.34375 13.109375q0 6.8125 -4.46875 11.53125q-4.453125 4.703125 -10.203125 4.703125q-5.25 0 -9.4375 -2.609375q-39.296875 -21.484375 -83.3125 -21.484375q-44.546875 0 -79.921875 20.4375q-35.359375 20.421875 -55.28125 56.32814q-19.90625 35.890625 -19.90625 80.421875q0 44.546875 19.90625 80.4375q19.921875 35.890625 55.28125 56.328125q35.375 20.43747 79.921875 20.43747q22.53125 0 45.3125 -6.2812195q22.796875 -6.296875 40.625 -17.296875l0 -103.75l-82.796875 0q-6.8125 0 -11.53125 -4.453125q-4.71875 -4.453125 -4.71875 -11.265625q0 -6.8125 4.71875 -11.265625q4.71875 -4.453125 11.53125 -4.453125l100.078125 0zm288.7268 -81.21875q6.8125 0 11.265625 4.453125q4.453125 4.453125 4.453125 11.265625l0 147.76562q0 51.34375 -28.828125 78.859344q-28.8125 27.515625 -79.640625 27.515625q-50.296875 0 -78.859375 -27.515625q-28.5625 -27.515594 -28.5625 -78.859344l0 -147.76562q0 -6.8125 4.453125 -11.265625q4.453125 -4.453125 11.265625 -4.453125q6.8125 0 11.265625 4.453125q4.46875 4.453125 4.46875 11.265625l0 147.76562q0 37.734375 19.90625 57.390625q19.90625 19.640594 56.0625 19.640594q36.6875 0 56.859375 -19.640594q20.171875 -19.65625 20.171875 -57.390625l0 -147.76562q0 -6.8125 4.453125 -11.265625q4.453125 -4.453125 11.265625 -4.453125zm128.37476 250.46872q0 6.8125 -4.453125 11.265625q-4.453125 4.453125 -11.265625 4.453125q-6.8125 0 -11.265625 -4.453125q-4.453125 -4.453125 -4.453125 -11.265625l0 -241.04684q0 -6.8125 4.453125 -11.265625q4.453125 -4.453125 11.265625 -4.453125q6.8125 0 11.265625 4.453125q4.453125 4.453125 4.453125 11.265625l0 241.04684zm-15.46875 -291.39062q-10.46875 0 -16.234375 -4.96875q-5.765625 -4.984375 -5.765625 -14.421875l0 -5.234375q0 -9.4375 6.015625 -14.40625q6.03125 -4.984375 16.515625 -4.984375q20.953125 0 20.953125 19.390625l0 5.234375q0 9.4375 -5.5 14.421875q-5.5 4.96875 -15.984375 4.96875zm314.68286 -80.65625q6.8125 0 11.265625 4.453125q4.453125 4.453125 4.453125 11.265625l0 356.32812q0 6.8125 -4.453125 11.265625q-4.453125 4.453125 -11.265625 4.453125q-6.8125 0 -11.265625 -4.453125q-4.453125 -4.453125 -4.453125 -11.265625l0 -36.68747q-13.109375 24.109344 -39.046875 40.87497q-25.9375 16.765625 -57.375 16.765625q-34.578125 0 -62.625 -18.078125q-28.03125 -18.078094 -44.28125 -50.03122q-16.234375 -31.96875 -16.234375 -71.796875q0 -39.296875 16.234375 -71.25q16.25 -31.96875 44.28125 -50.046875q28.046875 -18.078125 62.109375 -18.078125q30.90625 0 57.109375 15.453125q26.203125 15.453125 39.828125 40.078125l0 -153.53127q0 -6.8125 4.453125 -11.265625q4.453125 -4.453125 11.265625 -4.453125zm-109.0 363.65625q27.25 0 49.0 -14.1405945q21.75 -14.15625 34.0625 -39.5625q12.3125 -25.421875 12.3125 -56.859375q0 -30.90625 -12.3125 -56.0625q-12.3125 -25.15625 -34.0625 -39.5625q-21.75 -14.40625 -49.0 -14.40625q-27.25 0 -49.0 14.40625q-21.734375 14.40625 -34.046875 39.5625q-12.3125 25.15625 -12.3125 56.0625q0 31.4375 12.3125 56.59375q12.3125 25.15625 34.046875 39.5625q21.75 14.4062195 49.0 14.4062195zm433.35425 -125.234344q0 6.296875 -4.71875 10.75q-4.71875 4.453125 -11.0 4.453125l-198.07825 0q0 31.4375 12.828125 56.328125q12.843872 24.890625 36.687622 39.296875q23.84375 14.4062195 56.328125 14.4062195q25.15625 0 45.0625 -10.4687195q19.921875 -10.484375 31.96875 -26.734375q5.765625 -4.71875 11.015625 -4.71875q5.234375 0 9.421875 4.203125q4.1875 4.1875 4.1875 9.421875q0 5.765625 -5.234375 11.015625q-16.765625 20.43747 -42.1875 33.53122q-25.40625 13.09375 -53.703125 13.09375q-40.34375 0 -71.265625 -17.28125q-30.921997 -17.296875 -48.218872 -48.46872q-17.28125 -31.1875 -17.28125 -72.0625q0 -42.96875 17.03125 -75.1875q17.03125 -32.21875 45.328247 -49.25q28.296875 -17.03125 60.265625 -17.03125q31.4375 0 58.9375 14.671875q27.515625 14.671875 44.796875 42.96875q17.296875 28.296875 17.828125 67.0625zm-121.5625 -94.3125q-30.40625 0 -56.34375 20.96875q-25.937622 20.953125 -33.265747 60.25l178.68762 0l0 -4.1875q-2.625 -23.59375 -15.734375 -41.140625q-13.09375 -17.546875 -32.75 -26.71875q-19.640625 -9.171875 -40.59375 -9.171875zm293.43774 248.8906q-37.734375 0 -66.8125 -12.5625q-29.078125 -12.578125 -56.328125 -39.31247q-6.296875 -5.234375 -6.296875 -12.578125q0 -6.28125 4.96875 -11.515625q4.984375 -5.25 11.28125 -5.25q6.28125 0 11.53125 5.25q40.875 45.06247 102.171875 45.06247q37.734375 0 62.625 -17.81247q24.890625 -17.828125 24.890625 -46.640625q0 -22.53125 -12.3125 -37.46875q-12.3125 -14.9375 -32.234375 -24.359375q-19.90625 -9.4375 -50.828125 -19.390625q-33.53125 -9.953125 -56.328125 -22.0q-22.796875 -12.0625 -36.953125 -32.234375q-14.140625 -20.171875 -14.140625 -51.09375q0 -27.76564 14.9375 -49.250015q14.9375 -21.484375 41.921875 -33.796875q26.984375 -12.328125 62.09375 -12.328125q31.96875 0 60.0 10.75q28.03125 10.734375 44.796875 30.65625q7.859375 8.90625 7.859375 15.1875q0 5.765625 -5.25 10.75q-5.234375 4.96875 -11.515625 4.96875q-5.234375 0 -8.90625 -3.65625q-14.15625 -16.765625 -37.734375 -27.25q-23.578125 -10.484375 -49.25 -10.484375q-38.25 0 -62.359375 17.03125q-24.09375 17.03125 -24.09375 46.375015q0 30.390625 23.046875 46.640625q23.0625 16.234375 66.03125 29.859375q37.203125 11.0 60.78125 22.53125q23.578125 11.53125 38.515625 32.75q14.9375 21.21875 14.9375 55.8125q0 26.71875 -15.46875 48.46875q-15.453125 21.74997 -42.96875 34.328094q-27.5 12.5625 -62.609375 12.5625zm463.20654 -33.53125q7.859375 5.234375 7.859375 13.09375q0 2.625 -2.09375 6.8125q-2.09375 3.671875 -5.765625 5.765625q-3.65625 2.09375 -7.859375 2.09375q-5.234375 0 -8.90625 -2.09375q-14.671875 -8.375 -23.578125 -27.234344q-8.90625 -18.875 -8.90625 -60.265625q0 -36.6875 -20.4375 -51.609375q-20.4375 -14.9375 -48.734375 -14.9375l-116.328125 0l0 140.9531q0 6.8125 -4.1875 11.265625q-4.1875 4.453125 -11.0 4.453125q-7.34375 0 -12.59375 -4.453125q-5.234375 -4.453125 -5.234375 -11.265625l0 -335.35938q0 -6.8125 4.453125 -11.265625q4.453125 -4.453125 11.265625 -4.453125l141.48438 0q29.875 0 53.453125 12.84375q23.578125 12.828125 36.9375 35.359375q13.359375 22.53125 13.359375 50.82814q0 33.53125 -17.5625 58.953125q-17.546875 25.40625 -45.84375 34.84375q23.0625 8.90625 37.734375 30.140625q14.671875 21.21875 15.203125 51.609375q0.515625 32.484375 4.4375 45.59375q3.9375 13.09375 12.84375 18.328094zm-108.984375 -157.2031q18.34375 -1.5625 34.0625 -12.046875q15.71875 -10.484375 25.140625 -28.296875q9.4375 -17.8125 9.4375 -40.875q0 -29.85939 -20.171875 -49.51564q-20.171875 -19.65625 -52.65625 -19.65625l-121.578125 0l0 150.39064l125.765625 0zm460.0642 -154.04689q7.859375 4.703125 7.859375 13.09375q0 4.71875 -3.65625 10.484375q-4.71875 5.765625 -12.0625 5.765625q-4.1875 0 -8.375 -2.625q-41.921875 -27.765625 -91.703125 -27.765625q-42.453125 0 -76.78125 19.90625q-34.3125 19.90625 -53.96875 55.812515q-19.640625 35.890625 -19.640625 81.46875q0 46.640625 19.90625 82.546875q19.921875 35.890625 54.234375 55.546875q34.328125 19.640594 76.25 19.640594q49.78125 0 91.171875 -27.24997q4.1875 -2.625 8.90625 -2.625q7.34375 0 12.0625 6.296875q3.65625 4.1875 3.65625 9.953125q0 8.375 -7.328125 12.5780945q-20.4375 13.625 -50.3125 22.796875q-29.859375 9.15625 -58.15625 9.15625q-49.78125 0 -91.96875 -23.828125q-42.171875 -23.84372 -67.0625 -66.81247q-24.890625 -42.96875 -24.890625 -98.0q0 -52.921875 24.625 -96.140625q24.625 -43.23439 66.546875 -67.593765q41.921875 -24.375 92.75 -24.375q29.34375 0 57.375 8.390625q28.03125 8.375 50.5625 23.578125z" fill-rule="nonzero"/><path fill="#000000" d="m331.70456 86.09226l325.76376 -61.44882l103.84253 550.5827l-325.76376 61.44879z" fill-rule="evenodd"/><path fill="#2a2a2a" d="m331.81702 86.07132l191.71655 -7.4330673l2.7401733 70.362206l-191.71655 7.433075z" fill-rule="evenodd"/><path fill="#434343" d="m197.84515 140.29387l325.7638 -61.448814l104.69287 555.0551l-325.76376 61.448853z" fill-rule="evenodd"/><path fill="#2a2a2a" d="m262.72385 484.24512l315.79562 -114.22159l49.774475 263.8834l-325.75055 61.444885z" fill-rule="evenodd"/></g></svg>